<?xml version="1.0" encoding="utf-8" standalone="no"?>
<!DOCTYPE svg PUBLIC "-//W3C//DTD SVG 1.1//EN"
  "http://www.w3.org/Graphics/SVG/1.1/DTD/svg11.dtd">
<!-- Created with matplotlib (https://matplotlib.org/) -->
<svg height="345.6pt" version="1.1" viewBox="0 0 460.8 345.6" width="460.8pt" xmlns="http://www.w3.org/2000/svg" xmlns:xlink="http://www.w3.org/1999/xlink">
 <defs>
  <style type="text/css">
*{stroke-linecap:butt;stroke-linejoin:round;}
  </style>
 </defs>
 <g id="figure_1">
  <g id="patch_1">
   <path d="M 0 345.6 
L 460.8 345.6 
L 460.8 0 
L 0 0 
z
" style="fill:#ffffff;"/>
  </g>
  <g id="axes_1">
   <g id="patch_2">
    <path d="M 57.6 307.584 
L 414.72 307.584 
L 414.72 41.472 
L 57.6 41.472 
z
" style="fill:#ffffff;"/>
   </g>
   <g id="matplotlib.axis_1">
    <g id="xtick_1">
     <g id="line2d_1">
      <defs>
       <path d="M 0 0 
L 0 3.5 
" id="m157d09b448" style="stroke:#000000;stroke-width:0.8;"/>
      </defs>
      <g>
       <use style="stroke:#000000;stroke-width:0.8;" x="73.832727" xlink:href="#m157d09b448" y="307.584"/>
      </g>
     </g>
     <g id="text_1">
      <!-- 0 -->
      <defs>
       <path d="M 31.78125 66.40625 
Q 24.171875 66.40625 20.328125 58.90625 
Q 16.5 51.421875 16.5 36.375 
Q 16.5 21.390625 20.328125 13.890625 
Q 24.171875 6.390625 31.78125 6.390625 
Q 39.453125 6.390625 43.28125 13.890625 
Q 47.125 21.390625 47.125 36.375 
Q 47.125 51.421875 43.28125 58.90625 
Q 39.453125 66.40625 31.78125 66.40625 
z
M 31.78125 74.21875 
Q 44.046875 74.21875 50.515625 64.515625 
Q 56.984375 54.828125 56.984375 36.375 
Q 56.984375 17.96875 50.515625 8.265625 
Q 44.046875 -1.421875 31.78125 -1.421875 
Q 19.53125 -1.421875 13.0625 8.265625 
Q 6.59375 17.96875 6.59375 36.375 
Q 6.59375 54.828125 13.0625 64.515625 
Q 19.53125 74.21875 31.78125 74.21875 
z
" id="DejaVuSans-48"/>
      </defs>
      <g transform="translate(70.651477 322.182437)scale(0.1 -0.1)">
       <use xlink:href="#DejaVuSans-48"/>
      </g>
     </g>
    </g>
    <g id="xtick_2">
     <g id="line2d_2">
      <g>
       <use style="stroke:#000000;stroke-width:0.8;" x="139.419504" xlink:href="#m157d09b448" y="307.584"/>
      </g>
     </g>
     <g id="text_2">
      <!-- 20 -->
      <defs>
       <path d="M 19.1875 8.296875 
L 53.609375 8.296875 
L 53.609375 0 
L 7.328125 0 
L 7.328125 8.296875 
Q 12.9375 14.109375 22.625 23.890625 
Q 32.328125 33.6875 34.8125 36.53125 
Q 39.546875 41.84375 41.421875 45.53125 
Q 43.3125 49.21875 43.3125 52.78125 
Q 43.3125 58.59375 39.234375 62.25 
Q 35.15625 65.921875 28.609375 65.921875 
Q 23.96875 65.921875 18.8125 64.3125 
Q 13.671875 62.703125 7.8125 59.421875 
L 7.8125 69.390625 
Q 13.765625 71.78125 18.9375 73 
Q 24.125 74.21875 28.421875 74.21875 
Q 39.75 74.21875 46.484375 68.546875 
Q 53.21875 62.890625 53.21875 53.421875 
Q 53.21875 48.921875 51.53125 44.890625 
Q 49.859375 40.875 45.40625 35.40625 
Q 44.1875 33.984375 37.640625 27.21875 
Q 31.109375 20.453125 19.1875 8.296875 
z
" id="DejaVuSans-50"/>
      </defs>
      <g transform="translate(133.057004 322.182437)scale(0.1 -0.1)">
       <use xlink:href="#DejaVuSans-50"/>
       <use x="63.623047" xlink:href="#DejaVuSans-48"/>
      </g>
     </g>
    </g>
    <g id="xtick_3">
     <g id="line2d_3">
      <g>
       <use style="stroke:#000000;stroke-width:0.8;" x="205.006281" xlink:href="#m157d09b448" y="307.584"/>
      </g>
     </g>
     <g id="text_3">
      <!-- 40 -->
      <defs>
       <path d="M 37.796875 64.3125 
L 12.890625 25.390625 
L 37.796875 25.390625 
z
M 35.203125 72.90625 
L 47.609375 72.90625 
L 47.609375 25.390625 
L 58.015625 25.390625 
L 58.015625 17.1875 
L 47.609375 17.1875 
L 47.609375 0 
L 37.796875 0 
L 37.796875 17.1875 
L 4.890625 17.1875 
L 4.890625 26.703125 
z
" id="DejaVuSans-52"/>
      </defs>
      <g transform="translate(198.643781 322.182437)scale(0.1 -0.1)">
       <use xlink:href="#DejaVuSans-52"/>
       <use x="63.623047" xlink:href="#DejaVuSans-48"/>
      </g>
     </g>
    </g>
    <g id="xtick_4">
     <g id="line2d_4">
      <g>
       <use style="stroke:#000000;stroke-width:0.8;" x="270.593058" xlink:href="#m157d09b448" y="307.584"/>
      </g>
     </g>
     <g id="text_4">
      <!-- 60 -->
      <defs>
       <path d="M 33.015625 40.375 
Q 26.375 40.375 22.484375 35.828125 
Q 18.609375 31.296875 18.609375 23.390625 
Q 18.609375 15.53125 22.484375 10.953125 
Q 26.375 6.390625 33.015625 6.390625 
Q 39.65625 6.390625 43.53125 10.953125 
Q 47.40625 15.53125 47.40625 23.390625 
Q 47.40625 31.296875 43.53125 35.828125 
Q 39.65625 40.375 33.015625 40.375 
z
M 52.59375 71.296875 
L 52.59375 62.3125 
Q 48.875 64.0625 45.09375 64.984375 
Q 41.3125 65.921875 37.59375 65.921875 
Q 27.828125 65.921875 22.671875 59.328125 
Q 17.53125 52.734375 16.796875 39.40625 
Q 19.671875 43.65625 24.015625 45.921875 
Q 28.375 48.1875 33.59375 48.1875 
Q 44.578125 48.1875 50.953125 41.515625 
Q 57.328125 34.859375 57.328125 23.390625 
Q 57.328125 12.15625 50.6875 5.359375 
Q 44.046875 -1.421875 33.015625 -1.421875 
Q 20.359375 -1.421875 13.671875 8.265625 
Q 6.984375 17.96875 6.984375 36.375 
Q 6.984375 53.65625 15.1875 63.9375 
Q 23.390625 74.21875 37.203125 74.21875 
Q 40.921875 74.21875 44.703125 73.484375 
Q 48.484375 72.75 52.59375 71.296875 
z
" id="DejaVuSans-54"/>
      </defs>
      <g transform="translate(264.230558 322.182437)scale(0.1 -0.1)">
       <use xlink:href="#DejaVuSans-54"/>
       <use x="63.623047" xlink:href="#DejaVuSans-48"/>
      </g>
     </g>
    </g>
    <g id="xtick_5">
     <g id="line2d_5">
      <g>
       <use style="stroke:#000000;stroke-width:0.8;" x="336.179835" xlink:href="#m157d09b448" y="307.584"/>
      </g>
     </g>
     <g id="text_5">
      <!-- 80 -->
      <defs>
       <path d="M 31.78125 34.625 
Q 24.75 34.625 20.71875 30.859375 
Q 16.703125 27.09375 16.703125 20.515625 
Q 16.703125 13.921875 20.71875 10.15625 
Q 24.75 6.390625 31.78125 6.390625 
Q 38.8125 6.390625 42.859375 10.171875 
Q 46.921875 13.96875 46.921875 20.515625 
Q 46.921875 27.09375 42.890625 30.859375 
Q 38.875 34.625 31.78125 34.625 
z
M 21.921875 38.8125 
Q 15.578125 40.375 12.03125 44.71875 
Q 8.5 49.078125 8.5 55.328125 
Q 8.5 64.0625 14.71875 69.140625 
Q 20.953125 74.21875 31.78125 74.21875 
Q 42.671875 74.21875 48.875 69.140625 
Q 55.078125 64.0625 55.078125 55.328125 
Q 55.078125 49.078125 51.53125 44.71875 
Q 48 40.375 41.703125 38.8125 
Q 48.828125 37.15625 52.796875 32.3125 
Q 56.78125 27.484375 56.78125 20.515625 
Q 56.78125 9.90625 50.3125 4.234375 
Q 43.84375 -1.421875 31.78125 -1.421875 
Q 19.734375 -1.421875 13.25 4.234375 
Q 6.78125 9.90625 6.78125 20.515625 
Q 6.78125 27.484375 10.78125 32.3125 
Q 14.796875 37.15625 21.921875 38.8125 
z
M 18.3125 54.390625 
Q 18.3125 48.734375 21.84375 45.5625 
Q 25.390625 42.390625 31.78125 42.390625 
Q 38.140625 42.390625 41.71875 45.5625 
Q 45.3125 48.734375 45.3125 54.390625 
Q 45.3125 60.0625 41.71875 63.234375 
Q 38.140625 66.40625 31.78125 66.40625 
Q 25.390625 66.40625 21.84375 63.234375 
Q 18.3125 60.0625 18.3125 54.390625 
z
" id="DejaVuSans-56"/>
      </defs>
      <g transform="translate(329.817335 322.182437)scale(0.1 -0.1)">
       <use xlink:href="#DejaVuSans-56"/>
       <use x="63.623047" xlink:href="#DejaVuSans-48"/>
      </g>
     </g>
    </g>
    <g id="xtick_6">
     <g id="line2d_6">
      <g>
       <use style="stroke:#000000;stroke-width:0.8;" x="401.766612" xlink:href="#m157d09b448" y="307.584"/>
      </g>
     </g>
     <g id="text_6">
      <!-- 100 -->
      <defs>
       <path d="M 12.40625 8.296875 
L 28.515625 8.296875 
L 28.515625 63.921875 
L 10.984375 60.40625 
L 10.984375 69.390625 
L 28.421875 72.90625 
L 38.28125 72.90625 
L 38.28125 8.296875 
L 54.390625 8.296875 
L 54.390625 0 
L 12.40625 0 
z
" id="DejaVuSans-49"/>
      </defs>
      <g transform="translate(392.222862 322.182437)scale(0.1 -0.1)">
       <use xlink:href="#DejaVuSans-49"/>
       <use x="63.623047" xlink:href="#DejaVuSans-48"/>
       <use x="127.246094" xlink:href="#DejaVuSans-48"/>
      </g>
     </g>
    </g>
    <g id="text_7">
     <!-- Number of Rounds -->
     <defs>
      <path d="M 9.8125 72.90625 
L 23.09375 72.90625 
L 55.421875 11.921875 
L 55.421875 72.90625 
L 64.984375 72.90625 
L 64.984375 0 
L 51.703125 0 
L 19.390625 60.984375 
L 19.390625 0 
L 9.8125 0 
z
" id="DejaVuSans-78"/>
      <path d="M 8.5 21.578125 
L 8.5 54.6875 
L 17.484375 54.6875 
L 17.484375 21.921875 
Q 17.484375 14.15625 20.5 10.265625 
Q 23.53125 6.390625 29.59375 6.390625 
Q 36.859375 6.390625 41.078125 11.03125 
Q 45.3125 15.671875 45.3125 23.6875 
L 45.3125 54.6875 
L 54.296875 54.6875 
L 54.296875 0 
L 45.3125 0 
L 45.3125 8.40625 
Q 42.046875 3.421875 37.71875 1 
Q 33.40625 -1.421875 27.6875 -1.421875 
Q 18.265625 -1.421875 13.375 4.4375 
Q 8.5 10.296875 8.5 21.578125 
z
M 31.109375 56 
z
" id="DejaVuSans-117"/>
      <path d="M 52 44.1875 
Q 55.375 50.25 60.0625 53.125 
Q 64.75 56 71.09375 56 
Q 79.640625 56 84.28125 50.015625 
Q 88.921875 44.046875 88.921875 33.015625 
L 88.921875 0 
L 79.890625 0 
L 79.890625 32.71875 
Q 79.890625 40.578125 77.09375 44.375 
Q 74.3125 48.1875 68.609375 48.1875 
Q 61.625 48.1875 57.5625 43.546875 
Q 53.515625 38.921875 53.515625 30.90625 
L 53.515625 0 
L 44.484375 0 
L 44.484375 32.71875 
Q 44.484375 40.625 41.703125 44.40625 
Q 38.921875 48.1875 33.109375 48.1875 
Q 26.21875 48.1875 22.15625 43.53125 
Q 18.109375 38.875 18.109375 30.90625 
L 18.109375 0 
L 9.078125 0 
L 9.078125 54.6875 
L 18.109375 54.6875 
L 18.109375 46.1875 
Q 21.1875 51.21875 25.484375 53.609375 
Q 29.78125 56 35.6875 56 
Q 41.65625 56 45.828125 52.96875 
Q 50 49.953125 52 44.1875 
z
" id="DejaVuSans-109"/>
      <path d="M 48.6875 27.296875 
Q 48.6875 37.203125 44.609375 42.84375 
Q 40.53125 48.484375 33.40625 48.484375 
Q 26.265625 48.484375 22.1875 42.84375 
Q 18.109375 37.203125 18.109375 27.296875 
Q 18.109375 17.390625 22.1875 11.75 
Q 26.265625 6.109375 33.40625 6.109375 
Q 40.53125 6.109375 44.609375 11.75 
Q 48.6875 17.390625 48.6875 27.296875 
z
M 18.109375 46.390625 
Q 20.953125 51.265625 25.265625 53.625 
Q 29.59375 56 35.59375 56 
Q 45.5625 56 51.78125 48.09375 
Q 58.015625 40.1875 58.015625 27.296875 
Q 58.015625 14.40625 51.78125 6.484375 
Q 45.5625 -1.421875 35.59375 -1.421875 
Q 29.59375 -1.421875 25.265625 0.953125 
Q 20.953125 3.328125 18.109375 8.203125 
L 18.109375 0 
L 9.078125 0 
L 9.078125 75.984375 
L 18.109375 75.984375 
z
" id="DejaVuSans-98"/>
      <path d="M 56.203125 29.59375 
L 56.203125 25.203125 
L 14.890625 25.203125 
Q 15.484375 15.921875 20.484375 11.0625 
Q 25.484375 6.203125 34.421875 6.203125 
Q 39.59375 6.203125 44.453125 7.46875 
Q 49.3125 8.734375 54.109375 11.28125 
L 54.109375 2.78125 
Q 49.265625 0.734375 44.1875 -0.34375 
Q 39.109375 -1.421875 33.890625 -1.421875 
Q 20.796875 -1.421875 13.15625 6.1875 
Q 5.515625 13.8125 5.515625 26.8125 
Q 5.515625 40.234375 12.765625 48.109375 
Q 20.015625 56 32.328125 56 
Q 43.359375 56 49.78125 48.890625 
Q 56.203125 41.796875 56.203125 29.59375 
z
M 47.21875 32.234375 
Q 47.125 39.59375 43.09375 43.984375 
Q 39.0625 48.390625 32.421875 48.390625 
Q 24.90625 48.390625 20.390625 44.140625 
Q 15.875 39.890625 15.1875 32.171875 
z
" id="DejaVuSans-101"/>
      <path d="M 41.109375 46.296875 
Q 39.59375 47.171875 37.8125 47.578125 
Q 36.03125 48 33.890625 48 
Q 26.265625 48 22.1875 43.046875 
Q 18.109375 38.09375 18.109375 28.8125 
L 18.109375 0 
L 9.078125 0 
L 9.078125 54.6875 
L 18.109375 54.6875 
L 18.109375 46.1875 
Q 20.953125 51.171875 25.484375 53.578125 
Q 30.03125 56 36.53125 56 
Q 37.453125 56 38.578125 55.875 
Q 39.703125 55.765625 41.0625 55.515625 
z
" id="DejaVuSans-114"/>
      <path id="DejaVuSans-32"/>
      <path d="M 30.609375 48.390625 
Q 23.390625 48.390625 19.1875 42.75 
Q 14.984375 37.109375 14.984375 27.296875 
Q 14.984375 17.484375 19.15625 11.84375 
Q 23.34375 6.203125 30.609375 6.203125 
Q 37.796875 6.203125 41.984375 11.859375 
Q 46.1875 17.53125 46.1875 27.296875 
Q 46.1875 37.015625 41.984375 42.703125 
Q 37.796875 48.390625 30.609375 48.390625 
z
M 30.609375 56 
Q 42.328125 56 49.015625 48.375 
Q 55.71875 40.765625 55.71875 27.296875 
Q 55.71875 13.875 49.015625 6.21875 
Q 42.328125 -1.421875 30.609375 -1.421875 
Q 18.84375 -1.421875 12.171875 6.21875 
Q 5.515625 13.875 5.515625 27.296875 
Q 5.515625 40.765625 12.171875 48.375 
Q 18.84375 56 30.609375 56 
z
" id="DejaVuSans-111"/>
      <path d="M 37.109375 75.984375 
L 37.109375 68.5 
L 28.515625 68.5 
Q 23.6875 68.5 21.796875 66.546875 
Q 19.921875 64.59375 19.921875 59.515625 
L 19.921875 54.6875 
L 34.71875 54.6875 
L 34.71875 47.703125 
L 19.921875 47.703125 
L 19.921875 0 
L 10.890625 0 
L 10.890625 47.703125 
L 2.296875 47.703125 
L 2.296875 54.6875 
L 10.890625 54.6875 
L 10.890625 58.5 
Q 10.890625 67.625 15.140625 71.796875 
Q 19.390625 75.984375 28.609375 75.984375 
z
" id="DejaVuSans-102"/>
      <path d="M 44.390625 34.1875 
Q 47.5625 33.109375 50.5625 29.59375 
Q 53.5625 26.078125 56.59375 19.921875 
L 66.609375 0 
L 56 0 
L 46.6875 18.703125 
Q 43.0625 26.03125 39.671875 28.421875 
Q 36.28125 30.8125 30.421875 30.8125 
L 19.671875 30.8125 
L 19.671875 0 
L 9.8125 0 
L 9.8125 72.90625 
L 32.078125 72.90625 
Q 44.578125 72.90625 50.734375 67.671875 
Q 56.890625 62.453125 56.890625 51.90625 
Q 56.890625 45.015625 53.6875 40.46875 
Q 50.484375 35.9375 44.390625 34.1875 
z
M 19.671875 64.796875 
L 19.671875 38.921875 
L 32.078125 38.921875 
Q 39.203125 38.921875 42.84375 42.21875 
Q 46.484375 45.515625 46.484375 51.90625 
Q 46.484375 58.296875 42.84375 61.546875 
Q 39.203125 64.796875 32.078125 64.796875 
z
" id="DejaVuSans-82"/>
      <path d="M 54.890625 33.015625 
L 54.890625 0 
L 45.90625 0 
L 45.90625 32.71875 
Q 45.90625 40.484375 42.875 44.328125 
Q 39.84375 48.1875 33.796875 48.1875 
Q 26.515625 48.1875 22.3125 43.546875 
Q 18.109375 38.921875 18.109375 30.90625 
L 18.109375 0 
L 9.078125 0 
L 9.078125 54.6875 
L 18.109375 54.6875 
L 18.109375 46.1875 
Q 21.34375 51.125 25.703125 53.5625 
Q 30.078125 56 35.796875 56 
Q 45.21875 56 50.046875 50.171875 
Q 54.890625 44.34375 54.890625 33.015625 
z
" id="DejaVuSans-110"/>
      <path d="M 45.40625 46.390625 
L 45.40625 75.984375 
L 54.390625 75.984375 
L 54.390625 0 
L 45.40625 0 
L 45.40625 8.203125 
Q 42.578125 3.328125 38.25 0.953125 
Q 33.9375 -1.421875 27.875 -1.421875 
Q 17.96875 -1.421875 11.734375 6.484375 
Q 5.515625 14.40625 5.515625 27.296875 
Q 5.515625 40.1875 11.734375 48.09375 
Q 17.96875 56 27.875 56 
Q 33.9375 56 38.25 53.625 
Q 42.578125 51.265625 45.40625 46.390625 
z
M 14.796875 27.296875 
Q 14.796875 17.390625 18.875 11.75 
Q 22.953125 6.109375 30.078125 6.109375 
Q 37.203125 6.109375 41.296875 11.75 
Q 45.40625 17.390625 45.40625 27.296875 
Q 45.40625 37.203125 41.296875 42.84375 
Q 37.203125 48.484375 30.078125 48.484375 
Q 22.953125 48.484375 18.875 42.84375 
Q 14.796875 37.203125 14.796875 27.296875 
z
" id="DejaVuSans-100"/>
      <path d="M 44.28125 53.078125 
L 44.28125 44.578125 
Q 40.484375 46.53125 36.375 47.5 
Q 32.28125 48.484375 27.875 48.484375 
Q 21.1875 48.484375 17.84375 46.4375 
Q 14.5 44.390625 14.5 40.28125 
Q 14.5 37.15625 16.890625 35.375 
Q 19.28125 33.59375 26.515625 31.984375 
L 29.59375 31.296875 
Q 39.15625 29.25 43.1875 25.515625 
Q 47.21875 21.78125 47.21875 15.09375 
Q 47.21875 7.46875 41.1875 3.015625 
Q 35.15625 -1.421875 24.609375 -1.421875 
Q 20.21875 -1.421875 15.453125 -0.5625 
Q 10.6875 0.296875 5.421875 2 
L 5.421875 11.28125 
Q 10.40625 8.6875 15.234375 7.390625 
Q 20.0625 6.109375 24.8125 6.109375 
Q 31.15625 6.109375 34.5625 8.28125 
Q 37.984375 10.453125 37.984375 14.40625 
Q 37.984375 18.0625 35.515625 20.015625 
Q 33.0625 21.96875 24.703125 23.78125 
L 21.578125 24.515625 
Q 13.234375 26.265625 9.515625 29.90625 
Q 5.8125 33.546875 5.8125 39.890625 
Q 5.8125 47.609375 11.28125 51.796875 
Q 16.75 56 26.8125 56 
Q 31.78125 56 36.171875 55.265625 
Q 40.578125 54.546875 44.28125 53.078125 
z
" id="DejaVuSans-115"/>
     </defs>
     <g transform="translate(189.429531 335.860562)scale(0.1 -0.1)">
      <use xlink:href="#DejaVuSans-78"/>
      <use x="74.804688" xlink:href="#DejaVuSans-117"/>
      <use x="138.183594" xlink:href="#DejaVuSans-109"/>
      <use x="235.595703" xlink:href="#DejaVuSans-98"/>
      <use x="299.072266" xlink:href="#DejaVuSans-101"/>
      <use x="360.595703" xlink:href="#DejaVuSans-114"/>
      <use x="401.708984" xlink:href="#DejaVuSans-32"/>
      <use x="433.496094" xlink:href="#DejaVuSans-111"/>
      <use x="494.677734" xlink:href="#DejaVuSans-102"/>
      <use x="529.882812" xlink:href="#DejaVuSans-32"/>
      <use x="561.669922" xlink:href="#DejaVuSans-82"/>
      <use x="631.089844" xlink:href="#DejaVuSans-111"/>
      <use x="692.271484" xlink:href="#DejaVuSans-117"/>
      <use x="755.650391" xlink:href="#DejaVuSans-110"/>
      <use x="819.029297" xlink:href="#DejaVuSans-100"/>
      <use x="882.505859" xlink:href="#DejaVuSans-115"/>
     </g>
    </g>
   </g>
   <g id="matplotlib.axis_2">
    <g id="ytick_1">
     <g id="line2d_7">
      <defs>
       <path d="M 0 0 
L -3.5 0 
" id="m76c6b58228" style="stroke:#000000;stroke-width:0.8;"/>
      </defs>
      <g>
       <use style="stroke:#000000;stroke-width:0.8;" x="57.6" xlink:href="#m76c6b58228" y="260.109244"/>
      </g>
     </g>
     <g id="text_8">
      <!-- −200 -->
      <defs>
       <path d="M 10.59375 35.5 
L 73.1875 35.5 
L 73.1875 27.203125 
L 10.59375 27.203125 
z
" id="DejaVuSans-8722"/>
      </defs>
      <g transform="translate(23.132812 263.908463)scale(0.1 -0.1)">
       <use xlink:href="#DejaVuSans-8722"/>
       <use x="83.789062" xlink:href="#DejaVuSans-50"/>
       <use x="147.412109" xlink:href="#DejaVuSans-48"/>
       <use x="211.035156" xlink:href="#DejaVuSans-48"/>
      </g>
     </g>
    </g>
    <g id="ytick_2">
     <g id="line2d_8">
      <g>
       <use style="stroke:#000000;stroke-width:0.8;" x="57.6" xlink:href="#m76c6b58228" y="201.742505"/>
      </g>
     </g>
     <g id="text_9">
      <!-- −180 -->
      <g transform="translate(23.132812 205.541724)scale(0.1 -0.1)">
       <use xlink:href="#DejaVuSans-8722"/>
       <use x="83.789062" xlink:href="#DejaVuSans-49"/>
       <use x="147.412109" xlink:href="#DejaVuSans-56"/>
       <use x="211.035156" xlink:href="#DejaVuSans-48"/>
      </g>
     </g>
    </g>
    <g id="ytick_3">
     <g id="line2d_9">
      <g>
       <use style="stroke:#000000;stroke-width:0.8;" x="57.6" xlink:href="#m76c6b58228" y="143.375766"/>
      </g>
     </g>
     <g id="text_10">
      <!-- −160 -->
      <g transform="translate(23.132812 147.174985)scale(0.1 -0.1)">
       <use xlink:href="#DejaVuSans-8722"/>
       <use x="83.789062" xlink:href="#DejaVuSans-49"/>
       <use x="147.412109" xlink:href="#DejaVuSans-54"/>
       <use x="211.035156" xlink:href="#DejaVuSans-48"/>
      </g>
     </g>
    </g>
    <g id="ytick_4">
     <g id="line2d_10">
      <g>
       <use style="stroke:#000000;stroke-width:0.8;" x="57.6" xlink:href="#m76c6b58228" y="85.009027"/>
      </g>
     </g>
     <g id="text_11">
      <!-- −140 -->
      <g transform="translate(23.132812 88.808246)scale(0.1 -0.1)">
       <use xlink:href="#DejaVuSans-8722"/>
       <use x="83.789062" xlink:href="#DejaVuSans-49"/>
       <use x="147.412109" xlink:href="#DejaVuSans-52"/>
       <use x="211.035156" xlink:href="#DejaVuSans-48"/>
      </g>
     </g>
    </g>
    <g id="text_12">
     <!-- Reward -->
     <defs>
      <path d="M 4.203125 54.6875 
L 13.1875 54.6875 
L 24.421875 12.015625 
L 35.59375 54.6875 
L 46.1875 54.6875 
L 57.421875 12.015625 
L 68.609375 54.6875 
L 77.59375 54.6875 
L 63.28125 0 
L 52.6875 0 
L 40.921875 44.828125 
L 29.109375 0 
L 18.5 0 
z
" id="DejaVuSans-119"/>
      <path d="M 34.28125 27.484375 
Q 23.390625 27.484375 19.1875 25 
Q 14.984375 22.515625 14.984375 16.5 
Q 14.984375 11.71875 18.140625 8.90625 
Q 21.296875 6.109375 26.703125 6.109375 
Q 34.1875 6.109375 38.703125 11.40625 
Q 43.21875 16.703125 43.21875 25.484375 
L 43.21875 27.484375 
z
M 52.203125 31.203125 
L 52.203125 0 
L 43.21875 0 
L 43.21875 8.296875 
Q 40.140625 3.328125 35.546875 0.953125 
Q 30.953125 -1.421875 24.3125 -1.421875 
Q 15.921875 -1.421875 10.953125 3.296875 
Q 6 8.015625 6 15.921875 
Q 6 25.140625 12.171875 29.828125 
Q 18.359375 34.515625 30.609375 34.515625 
L 43.21875 34.515625 
L 43.21875 35.40625 
Q 43.21875 41.609375 39.140625 45 
Q 35.0625 48.390625 27.6875 48.390625 
Q 23 48.390625 18.546875 47.265625 
Q 14.109375 46.140625 10.015625 43.890625 
L 10.015625 52.203125 
Q 14.9375 54.109375 19.578125 55.046875 
Q 24.21875 56 28.609375 56 
Q 40.484375 56 46.34375 49.84375 
Q 52.203125 43.703125 52.203125 31.203125 
z
" id="DejaVuSans-97"/>
     </defs>
     <g transform="translate(17.053125 193.457687)rotate(-90)scale(0.1 -0.1)">
      <use xlink:href="#DejaVuSans-82"/>
      <use x="69.419922" xlink:href="#DejaVuSans-101"/>
      <use x="130.943359" xlink:href="#DejaVuSans-119"/>
      <use x="212.730469" xlink:href="#DejaVuSans-97"/>
      <use x="274.009766" xlink:href="#DejaVuSans-114"/>
      <use x="315.107422" xlink:href="#DejaVuSans-100"/>
     </g>
    </g>
   </g>
   <g id="line2d_11">
    <path clip-path="url(#pec7ae24a16)" d="M 73.832727 292.84731 
L 77.112066 240.11661 
L 80.391405 295.488 
L 83.670744 237.214486 
L 86.950083 209.494338 
L 90.229421 159.519844 
L 93.50876 99.347384 
L 96.788099 109.735853 
L 100.067438 93.553269 
L 103.346777 77.826676 
L 106.626116 53.568 
L 109.905455 132.875833 
L 113.184793 106.904661 
L 116.464132 93.139838 
L 119.743471 115.949479 
L 123.02281 55.973601 
L 126.302149 105.431306 
L 129.581488 120.65935 
L 132.860826 131.528129 
L 136.140165 102.677126 
L 139.419504 120.049337 
L 142.698843 128.974584 
L 145.978182 122.045561 
L 149.257521 123.859388 
L 152.53686 142.595517 
L 155.816198 153.07113 
L 159.095537 138.706427 
L 162.374876 182.594972 
L 165.654215 175.183613 
L 168.933554 130.956621 
L 172.212893 138.57267 
L 175.492231 133.435181 
L 178.77157 126.686527 
L 182.050909 120.959291 
L 185.330248 114.601775 
L 188.609587 90.152596 
L 191.888926 143.758798 
L 195.168264 118.551663 
L 198.447603 138.376088 
L 201.726942 107.845014 
L 205.006281 122.714346 
L 208.28562 116.555439 
L 211.564959 126.256883 
L 214.844298 127.361392 
L 218.123636 147.925535 
L 221.402975 150.124421 
L 224.682314 136.945292 
L 227.961653 122.313075 
L 231.240992 113.539824 
L 234.520331 135.370606 
L 237.799669 98.607667 
L 241.079008 79.93031 
L 244.358347 84.544931 
L 247.637686 78.906866 
L 250.917025 86.194602 
L 254.196364 98.48607 
L 257.475702 85.227903 
L 260.755041 143.327127 
L 264.03438 142.634022 
L 267.313719 171.786993 
L 270.593058 95.290085 
L 273.872397 109.591963 
L 277.151736 65.016393 
L 280.431074 72.032561 
L 283.710413 113.025062 
L 286.989752 87.495694 
L 290.269091 112.603525 
L 293.54843 63.999028 
L 296.827769 67.811106 
L 300.107107 92.4366 
L 303.386446 111.843541 
L 306.665785 103.85662 
L 309.945124 104.691589 
L 313.224463 104.136294 
L 316.503802 97.114046 
L 319.78314 123.689152 
L 323.062479 137.03649 
L 326.341818 150.000797 
L 329.621157 142.117234 
L 332.900496 125.997475 
L 336.179835 137.78634 
L 339.459174 145.023411 
L 342.738512 121.877351 
L 346.017851 131.542315 
L 349.29719 111.278113 
L 352.576529 116.972923 
L 355.855868 113.665475 
L 359.135207 111.705731 
L 362.414545 81.590115 
L 365.693884 121.615916 
L 368.973223 131.515969 
L 372.252562 163.941935 
L 375.531901 160.186603 
L 378.81124 138.819918 
L 382.090579 163.295443 
L 385.369917 123.089271 
L 388.649256 111.669251 
L 391.928595 102.085352 
L 395.207934 128.741523 
L 398.487273 140.700624 
" style="fill:none;stroke:#96cccb;stroke-linecap:square;stroke-width:1.5;"/>
    <defs>
     <path d="M 0 1.5 
C 0.397805 1.5 0.77937 1.341951 1.06066 1.06066 
C 1.341951 0.77937 1.5 0.397805 1.5 0 
C 1.5 -0.397805 1.341951 -0.77937 1.06066 -1.06066 
C 0.77937 -1.341951 0.397805 -1.5 0 -1.5 
C -0.397805 -1.5 -0.77937 -1.341951 -1.06066 -1.06066 
C -1.341951 -0.77937 -1.5 -0.397805 -1.5 0 
C -1.5 0.397805 -1.341951 0.77937 -1.06066 1.06066 
C -0.77937 1.341951 -0.397805 1.5 0 1.5 
z
" id="m5c92094550" style="stroke:#96cccb;"/>
    </defs>
    <g clip-path="url(#pec7ae24a16)">
     <use style="fill:#96cccb;stroke:#96cccb;" x="73.832727" xlink:href="#m5c92094550" y="292.84731"/>
     <use style="fill:#96cccb;stroke:#96cccb;" x="77.112066" xlink:href="#m5c92094550" y="240.11661"/>
     <use style="fill:#96cccb;stroke:#96cccb;" x="80.391405" xlink:href="#m5c92094550" y="295.488"/>
     <use style="fill:#96cccb;stroke:#96cccb;" x="83.670744" xlink:href="#m5c92094550" y="237.214486"/>
     <use style="fill:#96cccb;stroke:#96cccb;" x="86.950083" xlink:href="#m5c92094550" y="209.494338"/>
     <use style="fill:#96cccb;stroke:#96cccb;" x="90.229421" xlink:href="#m5c92094550" y="159.519844"/>
     <use style="fill:#96cccb;stroke:#96cccb;" x="93.50876" xlink:href="#m5c92094550" y="99.347384"/>
     <use style="fill:#96cccb;stroke:#96cccb;" x="96.788099" xlink:href="#m5c92094550" y="109.735853"/>
     <use style="fill:#96cccb;stroke:#96cccb;" x="100.067438" xlink:href="#m5c92094550" y="93.553269"/>
     <use style="fill:#96cccb;stroke:#96cccb;" x="103.346777" xlink:href="#m5c92094550" y="77.826676"/>
     <use style="fill:#96cccb;stroke:#96cccb;" x="106.626116" xlink:href="#m5c92094550" y="53.568"/>
     <use style="fill:#96cccb;stroke:#96cccb;" x="109.905455" xlink:href="#m5c92094550" y="132.875833"/>
     <use style="fill:#96cccb;stroke:#96cccb;" x="113.184793" xlink:href="#m5c92094550" y="106.904661"/>
     <use style="fill:#96cccb;stroke:#96cccb;" x="116.464132" xlink:href="#m5c92094550" y="93.139838"/>
     <use style="fill:#96cccb;stroke:#96cccb;" x="119.743471" xlink:href="#m5c92094550" y="115.949479"/>
     <use style="fill:#96cccb;stroke:#96cccb;" x="123.02281" xlink:href="#m5c92094550" y="55.973601"/>
     <use style="fill:#96cccb;stroke:#96cccb;" x="126.302149" xlink:href="#m5c92094550" y="105.431306"/>
     <use style="fill:#96cccb;stroke:#96cccb;" x="129.581488" xlink:href="#m5c92094550" y="120.65935"/>
     <use style="fill:#96cccb;stroke:#96cccb;" x="132.860826" xlink:href="#m5c92094550" y="131.528129"/>
     <use style="fill:#96cccb;stroke:#96cccb;" x="136.140165" xlink:href="#m5c92094550" y="102.677126"/>
     <use style="fill:#96cccb;stroke:#96cccb;" x="139.419504" xlink:href="#m5c92094550" y="120.049337"/>
     <use style="fill:#96cccb;stroke:#96cccb;" x="142.698843" xlink:href="#m5c92094550" y="128.974584"/>
     <use style="fill:#96cccb;stroke:#96cccb;" x="145.978182" xlink:href="#m5c92094550" y="122.045561"/>
     <use style="fill:#96cccb;stroke:#96cccb;" x="149.257521" xlink:href="#m5c92094550" y="123.859388"/>
     <use style="fill:#96cccb;stroke:#96cccb;" x="152.53686" xlink:href="#m5c92094550" y="142.595517"/>
     <use style="fill:#96cccb;stroke:#96cccb;" x="155.816198" xlink:href="#m5c92094550" y="153.07113"/>
     <use style="fill:#96cccb;stroke:#96cccb;" x="159.095537" xlink:href="#m5c92094550" y="138.706427"/>
     <use style="fill:#96cccb;stroke:#96cccb;" x="162.374876" xlink:href="#m5c92094550" y="182.594972"/>
     <use style="fill:#96cccb;stroke:#96cccb;" x="165.654215" xlink:href="#m5c92094550" y="175.183613"/>
     <use style="fill:#96cccb;stroke:#96cccb;" x="168.933554" xlink:href="#m5c92094550" y="130.956621"/>
     <use style="fill:#96cccb;stroke:#96cccb;" x="172.212893" xlink:href="#m5c92094550" y="138.57267"/>
     <use style="fill:#96cccb;stroke:#96cccb;" x="175.492231" xlink:href="#m5c92094550" y="133.435181"/>
     <use style="fill:#96cccb;stroke:#96cccb;" x="178.77157" xlink:href="#m5c92094550" y="126.686527"/>
     <use style="fill:#96cccb;stroke:#96cccb;" x="182.050909" xlink:href="#m5c92094550" y="120.959291"/>
     <use style="fill:#96cccb;stroke:#96cccb;" x="185.330248" xlink:href="#m5c92094550" y="114.601775"/>
     <use style="fill:#96cccb;stroke:#96cccb;" x="188.609587" xlink:href="#m5c92094550" y="90.152596"/>
     <use style="fill:#96cccb;stroke:#96cccb;" x="191.888926" xlink:href="#m5c92094550" y="143.758798"/>
     <use style="fill:#96cccb;stroke:#96cccb;" x="195.168264" xlink:href="#m5c92094550" y="118.551663"/>
     <use style="fill:#96cccb;stroke:#96cccb;" x="198.447603" xlink:href="#m5c92094550" y="138.376088"/>
     <use style="fill:#96cccb;stroke:#96cccb;" x="201.726942" xlink:href="#m5c92094550" y="107.845014"/>
     <use style="fill:#96cccb;stroke:#96cccb;" x="205.006281" xlink:href="#m5c92094550" y="122.714346"/>
     <use style="fill:#96cccb;stroke:#96cccb;" x="208.28562" xlink:href="#m5c92094550" y="116.555439"/>
     <use style="fill:#96cccb;stroke:#96cccb;" x="211.564959" xlink:href="#m5c92094550" y="126.256883"/>
     <use style="fill:#96cccb;stroke:#96cccb;" x="214.844298" xlink:href="#m5c92094550" y="127.361392"/>
     <use style="fill:#96cccb;stroke:#96cccb;" x="218.123636" xlink:href="#m5c92094550" y="147.925535"/>
     <use style="fill:#96cccb;stroke:#96cccb;" x="221.402975" xlink:href="#m5c92094550" y="150.124421"/>
     <use style="fill:#96cccb;stroke:#96cccb;" x="224.682314" xlink:href="#m5c92094550" y="136.945292"/>
     <use style="fill:#96cccb;stroke:#96cccb;" x="227.961653" xlink:href="#m5c92094550" y="122.313075"/>
     <use style="fill:#96cccb;stroke:#96cccb;" x="231.240992" xlink:href="#m5c92094550" y="113.539824"/>
     <use style="fill:#96cccb;stroke:#96cccb;" x="234.520331" xlink:href="#m5c92094550" y="135.370606"/>
     <use style="fill:#96cccb;stroke:#96cccb;" x="237.799669" xlink:href="#m5c92094550" y="98.607667"/>
     <use style="fill:#96cccb;stroke:#96cccb;" x="241.079008" xlink:href="#m5c92094550" y="79.93031"/>
     <use style="fill:#96cccb;stroke:#96cccb;" x="244.358347" xlink:href="#m5c92094550" y="84.544931"/>
     <use style="fill:#96cccb;stroke:#96cccb;" x="247.637686" xlink:href="#m5c92094550" y="78.906866"/>
     <use style="fill:#96cccb;stroke:#96cccb;" x="250.917025" xlink:href="#m5c92094550" y="86.194602"/>
     <use style="fill:#96cccb;stroke:#96cccb;" x="254.196364" xlink:href="#m5c92094550" y="98.48607"/>
     <use style="fill:#96cccb;stroke:#96cccb;" x="257.475702" xlink:href="#m5c92094550" y="85.227903"/>
     <use style="fill:#96cccb;stroke:#96cccb;" x="260.755041" xlink:href="#m5c92094550" y="143.327127"/>
     <use style="fill:#96cccb;stroke:#96cccb;" x="264.03438" xlink:href="#m5c92094550" y="142.634022"/>
     <use style="fill:#96cccb;stroke:#96cccb;" x="267.313719" xlink:href="#m5c92094550" y="171.786993"/>
     <use style="fill:#96cccb;stroke:#96cccb;" x="270.593058" xlink:href="#m5c92094550" y="95.290085"/>
     <use style="fill:#96cccb;stroke:#96cccb;" x="273.872397" xlink:href="#m5c92094550" y="109.591963"/>
     <use style="fill:#96cccb;stroke:#96cccb;" x="277.151736" xlink:href="#m5c92094550" y="65.016393"/>
     <use style="fill:#96cccb;stroke:#96cccb;" x="280.431074" xlink:href="#m5c92094550" y="72.032561"/>
     <use style="fill:#96cccb;stroke:#96cccb;" x="283.710413" xlink:href="#m5c92094550" y="113.025062"/>
     <use style="fill:#96cccb;stroke:#96cccb;" x="286.989752" xlink:href="#m5c92094550" y="87.495694"/>
     <use style="fill:#96cccb;stroke:#96cccb;" x="290.269091" xlink:href="#m5c92094550" y="112.603525"/>
     <use style="fill:#96cccb;stroke:#96cccb;" x="293.54843" xlink:href="#m5c92094550" y="63.999028"/>
     <use style="fill:#96cccb;stroke:#96cccb;" x="296.827769" xlink:href="#m5c92094550" y="67.811106"/>
     <use style="fill:#96cccb;stroke:#96cccb;" x="300.107107" xlink:href="#m5c92094550" y="92.4366"/>
     <use style="fill:#96cccb;stroke:#96cccb;" x="303.386446" xlink:href="#m5c92094550" y="111.843541"/>
     <use style="fill:#96cccb;stroke:#96cccb;" x="306.665785" xlink:href="#m5c92094550" y="103.85662"/>
     <use style="fill:#96cccb;stroke:#96cccb;" x="309.945124" xlink:href="#m5c92094550" y="104.691589"/>
     <use style="fill:#96cccb;stroke:#96cccb;" x="313.224463" xlink:href="#m5c92094550" y="104.136294"/>
     <use style="fill:#96cccb;stroke:#96cccb;" x="316.503802" xlink:href="#m5c92094550" y="97.114046"/>
     <use style="fill:#96cccb;stroke:#96cccb;" x="319.78314" xlink:href="#m5c92094550" y="123.689152"/>
     <use style="fill:#96cccb;stroke:#96cccb;" x="323.062479" xlink:href="#m5c92094550" y="137.03649"/>
     <use style="fill:#96cccb;stroke:#96cccb;" x="326.341818" xlink:href="#m5c92094550" y="150.000797"/>
     <use style="fill:#96cccb;stroke:#96cccb;" x="329.621157" xlink:href="#m5c92094550" y="142.117234"/>
     <use style="fill:#96cccb;stroke:#96cccb;" x="332.900496" xlink:href="#m5c92094550" y="125.997475"/>
     <use style="fill:#96cccb;stroke:#96cccb;" x="336.179835" xlink:href="#m5c92094550" y="137.78634"/>
     <use style="fill:#96cccb;stroke:#96cccb;" x="339.459174" xlink:href="#m5c92094550" y="145.023411"/>
     <use style="fill:#96cccb;stroke:#96cccb;" x="342.738512" xlink:href="#m5c92094550" y="121.877351"/>
     <use style="fill:#96cccb;stroke:#96cccb;" x="346.017851" xlink:href="#m5c92094550" y="131.542315"/>
     <use style="fill:#96cccb;stroke:#96cccb;" x="349.29719" xlink:href="#m5c92094550" y="111.278113"/>
     <use style="fill:#96cccb;stroke:#96cccb;" x="352.576529" xlink:href="#m5c92094550" y="116.972923"/>
     <use style="fill:#96cccb;stroke:#96cccb;" x="355.855868" xlink:href="#m5c92094550" y="113.665475"/>
     <use style="fill:#96cccb;stroke:#96cccb;" x="359.135207" xlink:href="#m5c92094550" y="111.705731"/>
     <use style="fill:#96cccb;stroke:#96cccb;" x="362.414545" xlink:href="#m5c92094550" y="81.590115"/>
     <use style="fill:#96cccb;stroke:#96cccb;" x="365.693884" xlink:href="#m5c92094550" y="121.615916"/>
     <use style="fill:#96cccb;stroke:#96cccb;" x="368.973223" xlink:href="#m5c92094550" y="131.515969"/>
     <use style="fill:#96cccb;stroke:#96cccb;" x="372.252562" xlink:href="#m5c92094550" y="163.941935"/>
     <use style="fill:#96cccb;stroke:#96cccb;" x="375.531901" xlink:href="#m5c92094550" y="160.186603"/>
     <use style="fill:#96cccb;stroke:#96cccb;" x="378.81124" xlink:href="#m5c92094550" y="138.819918"/>
     <use style="fill:#96cccb;stroke:#96cccb;" x="382.090579" xlink:href="#m5c92094550" y="163.295443"/>
     <use style="fill:#96cccb;stroke:#96cccb;" x="385.369917" xlink:href="#m5c92094550" y="123.089271"/>
     <use style="fill:#96cccb;stroke:#96cccb;" x="388.649256" xlink:href="#m5c92094550" y="111.669251"/>
     <use style="fill:#96cccb;stroke:#96cccb;" x="391.928595" xlink:href="#m5c92094550" y="102.085352"/>
     <use style="fill:#96cccb;stroke:#96cccb;" x="395.207934" xlink:href="#m5c92094550" y="128.741523"/>
     <use style="fill:#96cccb;stroke:#96cccb;" x="398.487273" xlink:href="#m5c92094550" y="140.700624"/>
    </g>
   </g>
   <g id="patch_3">
    <path d="M 57.6 307.584 
L 57.6 41.472 
" style="fill:none;stroke:#000000;stroke-linecap:square;stroke-linejoin:miter;stroke-width:0.8;"/>
   </g>
   <g id="patch_4">
    <path d="M 414.72 307.584 
L 414.72 41.472 
" style="fill:none;stroke:#000000;stroke-linecap:square;stroke-linejoin:miter;stroke-width:0.8;"/>
   </g>
   <g id="patch_5">
    <path d="M 57.6 307.584 
L 414.72 307.584 
" style="fill:none;stroke:#000000;stroke-linecap:square;stroke-linejoin:miter;stroke-width:0.8;"/>
   </g>
   <g id="patch_6">
    <path d="M 57.6 41.472 
L 414.72 41.472 
" style="fill:none;stroke:#000000;stroke-linecap:square;stroke-linejoin:miter;stroke-width:0.8;"/>
   </g>
  </g>
 </g>
 <defs>
  <clipPath id="pec7ae24a16">
   <rect height="266.112" width="357.12" x="57.6" y="41.472"/>
  </clipPath>
 </defs>
</svg>
