<?xml version="1.0" encoding="utf-8" standalone="no"?>
<!DOCTYPE svg PUBLIC "-//W3C//DTD SVG 1.1//EN"
  "http://www.w3.org/Graphics/SVG/1.1/DTD/svg11.dtd">
<!-- Created with matplotlib (https://matplotlib.org/) -->
<svg height="345.6pt" version="1.1" viewBox="0 0 460.8 345.6" width="460.8pt" xmlns="http://www.w3.org/2000/svg" xmlns:xlink="http://www.w3.org/1999/xlink">
 <defs>
  <style type="text/css">
*{stroke-linecap:butt;stroke-linejoin:round;}
  </style>
 </defs>
 <g id="figure_1">
  <g id="patch_1">
   <path d="M 0 345.6 
L 460.8 345.6 
L 460.8 0 
L 0 0 
z
" style="fill:#ffffff;"/>
  </g>
  <g id="axes_1">
   <g id="patch_2">
    <path d="M 57.6 307.584 
L 414.72 307.584 
L 414.72 41.472 
L 57.6 41.472 
z
" style="fill:#ffffff;"/>
   </g>
   <g id="matplotlib.axis_1">
    <g id="xtick_1">
     <g id="line2d_1">
      <defs>
       <path d="M 0 0 
L 0 3.5 
" id="m9d2cb24542" style="stroke:#000000;stroke-width:0.8;"/>
      </defs>
      <g>
       <use style="stroke:#000000;stroke-width:0.8;" x="73.832727" xlink:href="#m9d2cb24542" y="307.584"/>
      </g>
     </g>
     <g id="text_1">
      <!-- 0 -->
      <defs>
       <path d="M 31.78125 66.40625 
Q 24.171875 66.40625 20.328125 58.90625 
Q 16.5 51.421875 16.5 36.375 
Q 16.5 21.390625 20.328125 13.890625 
Q 24.171875 6.390625 31.78125 6.390625 
Q 39.453125 6.390625 43.28125 13.890625 
Q 47.125 21.390625 47.125 36.375 
Q 47.125 51.421875 43.28125 58.90625 
Q 39.453125 66.40625 31.78125 66.40625 
z
M 31.78125 74.21875 
Q 44.046875 74.21875 50.515625 64.515625 
Q 56.984375 54.828125 56.984375 36.375 
Q 56.984375 17.96875 50.515625 8.265625 
Q 44.046875 -1.421875 31.78125 -1.421875 
Q 19.53125 -1.421875 13.0625 8.265625 
Q 6.59375 17.96875 6.59375 36.375 
Q 6.59375 54.828125 13.0625 64.515625 
Q 19.53125 74.21875 31.78125 74.21875 
z
" id="DejaVuSans-48"/>
      </defs>
      <g transform="translate(70.651477 322.182437)scale(0.1 -0.1)">
       <use xlink:href="#DejaVuSans-48"/>
      </g>
     </g>
    </g>
    <g id="xtick_2">
     <g id="line2d_2">
      <g>
       <use style="stroke:#000000;stroke-width:0.8;" x="139.419504" xlink:href="#m9d2cb24542" y="307.584"/>
      </g>
     </g>
     <g id="text_2">
      <!-- 20 -->
      <defs>
       <path d="M 19.1875 8.296875 
L 53.609375 8.296875 
L 53.609375 0 
L 7.328125 0 
L 7.328125 8.296875 
Q 12.9375 14.109375 22.625 23.890625 
Q 32.328125 33.6875 34.8125 36.53125 
Q 39.546875 41.84375 41.421875 45.53125 
Q 43.3125 49.21875 43.3125 52.78125 
Q 43.3125 58.59375 39.234375 62.25 
Q 35.15625 65.921875 28.609375 65.921875 
Q 23.96875 65.921875 18.8125 64.3125 
Q 13.671875 62.703125 7.8125 59.421875 
L 7.8125 69.390625 
Q 13.765625 71.78125 18.9375 73 
Q 24.125 74.21875 28.421875 74.21875 
Q 39.75 74.21875 46.484375 68.546875 
Q 53.21875 62.890625 53.21875 53.421875 
Q 53.21875 48.921875 51.53125 44.890625 
Q 49.859375 40.875 45.40625 35.40625 
Q 44.1875 33.984375 37.640625 27.21875 
Q 31.109375 20.453125 19.1875 8.296875 
z
" id="DejaVuSans-50"/>
      </defs>
      <g transform="translate(133.057004 322.182437)scale(0.1 -0.1)">
       <use xlink:href="#DejaVuSans-50"/>
       <use x="63.623047" xlink:href="#DejaVuSans-48"/>
      </g>
     </g>
    </g>
    <g id="xtick_3">
     <g id="line2d_3">
      <g>
       <use style="stroke:#000000;stroke-width:0.8;" x="205.006281" xlink:href="#m9d2cb24542" y="307.584"/>
      </g>
     </g>
     <g id="text_3">
      <!-- 40 -->
      <defs>
       <path d="M 37.796875 64.3125 
L 12.890625 25.390625 
L 37.796875 25.390625 
z
M 35.203125 72.90625 
L 47.609375 72.90625 
L 47.609375 25.390625 
L 58.015625 25.390625 
L 58.015625 17.1875 
L 47.609375 17.1875 
L 47.609375 0 
L 37.796875 0 
L 37.796875 17.1875 
L 4.890625 17.1875 
L 4.890625 26.703125 
z
" id="DejaVuSans-52"/>
      </defs>
      <g transform="translate(198.643781 322.182437)scale(0.1 -0.1)">
       <use xlink:href="#DejaVuSans-52"/>
       <use x="63.623047" xlink:href="#DejaVuSans-48"/>
      </g>
     </g>
    </g>
    <g id="xtick_4">
     <g id="line2d_4">
      <g>
       <use style="stroke:#000000;stroke-width:0.8;" x="270.593058" xlink:href="#m9d2cb24542" y="307.584"/>
      </g>
     </g>
     <g id="text_4">
      <!-- 60 -->
      <defs>
       <path d="M 33.015625 40.375 
Q 26.375 40.375 22.484375 35.828125 
Q 18.609375 31.296875 18.609375 23.390625 
Q 18.609375 15.53125 22.484375 10.953125 
Q 26.375 6.390625 33.015625 6.390625 
Q 39.65625 6.390625 43.53125 10.953125 
Q 47.40625 15.53125 47.40625 23.390625 
Q 47.40625 31.296875 43.53125 35.828125 
Q 39.65625 40.375 33.015625 40.375 
z
M 52.59375 71.296875 
L 52.59375 62.3125 
Q 48.875 64.0625 45.09375 64.984375 
Q 41.3125 65.921875 37.59375 65.921875 
Q 27.828125 65.921875 22.671875 59.328125 
Q 17.53125 52.734375 16.796875 39.40625 
Q 19.671875 43.65625 24.015625 45.921875 
Q 28.375 48.1875 33.59375 48.1875 
Q 44.578125 48.1875 50.953125 41.515625 
Q 57.328125 34.859375 57.328125 23.390625 
Q 57.328125 12.15625 50.6875 5.359375 
Q 44.046875 -1.421875 33.015625 -1.421875 
Q 20.359375 -1.421875 13.671875 8.265625 
Q 6.984375 17.96875 6.984375 36.375 
Q 6.984375 53.65625 15.1875 63.9375 
Q 23.390625 74.21875 37.203125 74.21875 
Q 40.921875 74.21875 44.703125 73.484375 
Q 48.484375 72.75 52.59375 71.296875 
z
" id="DejaVuSans-54"/>
      </defs>
      <g transform="translate(264.230558 322.182437)scale(0.1 -0.1)">
       <use xlink:href="#DejaVuSans-54"/>
       <use x="63.623047" xlink:href="#DejaVuSans-48"/>
      </g>
     </g>
    </g>
    <g id="xtick_5">
     <g id="line2d_5">
      <g>
       <use style="stroke:#000000;stroke-width:0.8;" x="336.179835" xlink:href="#m9d2cb24542" y="307.584"/>
      </g>
     </g>
     <g id="text_5">
      <!-- 80 -->
      <defs>
       <path d="M 31.78125 34.625 
Q 24.75 34.625 20.71875 30.859375 
Q 16.703125 27.09375 16.703125 20.515625 
Q 16.703125 13.921875 20.71875 10.15625 
Q 24.75 6.390625 31.78125 6.390625 
Q 38.8125 6.390625 42.859375 10.171875 
Q 46.921875 13.96875 46.921875 20.515625 
Q 46.921875 27.09375 42.890625 30.859375 
Q 38.875 34.625 31.78125 34.625 
z
M 21.921875 38.8125 
Q 15.578125 40.375 12.03125 44.71875 
Q 8.5 49.078125 8.5 55.328125 
Q 8.5 64.0625 14.71875 69.140625 
Q 20.953125 74.21875 31.78125 74.21875 
Q 42.671875 74.21875 48.875 69.140625 
Q 55.078125 64.0625 55.078125 55.328125 
Q 55.078125 49.078125 51.53125 44.71875 
Q 48 40.375 41.703125 38.8125 
Q 48.828125 37.15625 52.796875 32.3125 
Q 56.78125 27.484375 56.78125 20.515625 
Q 56.78125 9.90625 50.3125 4.234375 
Q 43.84375 -1.421875 31.78125 -1.421875 
Q 19.734375 -1.421875 13.25 4.234375 
Q 6.78125 9.90625 6.78125 20.515625 
Q 6.78125 27.484375 10.78125 32.3125 
Q 14.796875 37.15625 21.921875 38.8125 
z
M 18.3125 54.390625 
Q 18.3125 48.734375 21.84375 45.5625 
Q 25.390625 42.390625 31.78125 42.390625 
Q 38.140625 42.390625 41.71875 45.5625 
Q 45.3125 48.734375 45.3125 54.390625 
Q 45.3125 60.0625 41.71875 63.234375 
Q 38.140625 66.40625 31.78125 66.40625 
Q 25.390625 66.40625 21.84375 63.234375 
Q 18.3125 60.0625 18.3125 54.390625 
z
" id="DejaVuSans-56"/>
      </defs>
      <g transform="translate(329.817335 322.182437)scale(0.1 -0.1)">
       <use xlink:href="#DejaVuSans-56"/>
       <use x="63.623047" xlink:href="#DejaVuSans-48"/>
      </g>
     </g>
    </g>
    <g id="xtick_6">
     <g id="line2d_6">
      <g>
       <use style="stroke:#000000;stroke-width:0.8;" x="401.766612" xlink:href="#m9d2cb24542" y="307.584"/>
      </g>
     </g>
     <g id="text_6">
      <!-- 100 -->
      <defs>
       <path d="M 12.40625 8.296875 
L 28.515625 8.296875 
L 28.515625 63.921875 
L 10.984375 60.40625 
L 10.984375 69.390625 
L 28.421875 72.90625 
L 38.28125 72.90625 
L 38.28125 8.296875 
L 54.390625 8.296875 
L 54.390625 0 
L 12.40625 0 
z
" id="DejaVuSans-49"/>
      </defs>
      <g transform="translate(392.222862 322.182437)scale(0.1 -0.1)">
       <use xlink:href="#DejaVuSans-49"/>
       <use x="63.623047" xlink:href="#DejaVuSans-48"/>
       <use x="127.246094" xlink:href="#DejaVuSans-48"/>
      </g>
     </g>
    </g>
    <g id="text_7">
     <!-- Number of Rounds -->
     <defs>
      <path d="M 9.8125 72.90625 
L 23.09375 72.90625 
L 55.421875 11.921875 
L 55.421875 72.90625 
L 64.984375 72.90625 
L 64.984375 0 
L 51.703125 0 
L 19.390625 60.984375 
L 19.390625 0 
L 9.8125 0 
z
" id="DejaVuSans-78"/>
      <path d="M 8.5 21.578125 
L 8.5 54.6875 
L 17.484375 54.6875 
L 17.484375 21.921875 
Q 17.484375 14.15625 20.5 10.265625 
Q 23.53125 6.390625 29.59375 6.390625 
Q 36.859375 6.390625 41.078125 11.03125 
Q 45.3125 15.671875 45.3125 23.6875 
L 45.3125 54.6875 
L 54.296875 54.6875 
L 54.296875 0 
L 45.3125 0 
L 45.3125 8.40625 
Q 42.046875 3.421875 37.71875 1 
Q 33.40625 -1.421875 27.6875 -1.421875 
Q 18.265625 -1.421875 13.375 4.4375 
Q 8.5 10.296875 8.5 21.578125 
z
M 31.109375 56 
z
" id="DejaVuSans-117"/>
      <path d="M 52 44.1875 
Q 55.375 50.25 60.0625 53.125 
Q 64.75 56 71.09375 56 
Q 79.640625 56 84.28125 50.015625 
Q 88.921875 44.046875 88.921875 33.015625 
L 88.921875 0 
L 79.890625 0 
L 79.890625 32.71875 
Q 79.890625 40.578125 77.09375 44.375 
Q 74.3125 48.1875 68.609375 48.1875 
Q 61.625 48.1875 57.5625 43.546875 
Q 53.515625 38.921875 53.515625 30.90625 
L 53.515625 0 
L 44.484375 0 
L 44.484375 32.71875 
Q 44.484375 40.625 41.703125 44.40625 
Q 38.921875 48.1875 33.109375 48.1875 
Q 26.21875 48.1875 22.15625 43.53125 
Q 18.109375 38.875 18.109375 30.90625 
L 18.109375 0 
L 9.078125 0 
L 9.078125 54.6875 
L 18.109375 54.6875 
L 18.109375 46.1875 
Q 21.1875 51.21875 25.484375 53.609375 
Q 29.78125 56 35.6875 56 
Q 41.65625 56 45.828125 52.96875 
Q 50 49.953125 52 44.1875 
z
" id="DejaVuSans-109"/>
      <path d="M 48.6875 27.296875 
Q 48.6875 37.203125 44.609375 42.84375 
Q 40.53125 48.484375 33.40625 48.484375 
Q 26.265625 48.484375 22.1875 42.84375 
Q 18.109375 37.203125 18.109375 27.296875 
Q 18.109375 17.390625 22.1875 11.75 
Q 26.265625 6.109375 33.40625 6.109375 
Q 40.53125 6.109375 44.609375 11.75 
Q 48.6875 17.390625 48.6875 27.296875 
z
M 18.109375 46.390625 
Q 20.953125 51.265625 25.265625 53.625 
Q 29.59375 56 35.59375 56 
Q 45.5625 56 51.78125 48.09375 
Q 58.015625 40.1875 58.015625 27.296875 
Q 58.015625 14.40625 51.78125 6.484375 
Q 45.5625 -1.421875 35.59375 -1.421875 
Q 29.59375 -1.421875 25.265625 0.953125 
Q 20.953125 3.328125 18.109375 8.203125 
L 18.109375 0 
L 9.078125 0 
L 9.078125 75.984375 
L 18.109375 75.984375 
z
" id="DejaVuSans-98"/>
      <path d="M 56.203125 29.59375 
L 56.203125 25.203125 
L 14.890625 25.203125 
Q 15.484375 15.921875 20.484375 11.0625 
Q 25.484375 6.203125 34.421875 6.203125 
Q 39.59375 6.203125 44.453125 7.46875 
Q 49.3125 8.734375 54.109375 11.28125 
L 54.109375 2.78125 
Q 49.265625 0.734375 44.1875 -0.34375 
Q 39.109375 -1.421875 33.890625 -1.421875 
Q 20.796875 -1.421875 13.15625 6.1875 
Q 5.515625 13.8125 5.515625 26.8125 
Q 5.515625 40.234375 12.765625 48.109375 
Q 20.015625 56 32.328125 56 
Q 43.359375 56 49.78125 48.890625 
Q 56.203125 41.796875 56.203125 29.59375 
z
M 47.21875 32.234375 
Q 47.125 39.59375 43.09375 43.984375 
Q 39.0625 48.390625 32.421875 48.390625 
Q 24.90625 48.390625 20.390625 44.140625 
Q 15.875 39.890625 15.1875 32.171875 
z
" id="DejaVuSans-101"/>
      <path d="M 41.109375 46.296875 
Q 39.59375 47.171875 37.8125 47.578125 
Q 36.03125 48 33.890625 48 
Q 26.265625 48 22.1875 43.046875 
Q 18.109375 38.09375 18.109375 28.8125 
L 18.109375 0 
L 9.078125 0 
L 9.078125 54.6875 
L 18.109375 54.6875 
L 18.109375 46.1875 
Q 20.953125 51.171875 25.484375 53.578125 
Q 30.03125 56 36.53125 56 
Q 37.453125 56 38.578125 55.875 
Q 39.703125 55.765625 41.0625 55.515625 
z
" id="DejaVuSans-114"/>
      <path id="DejaVuSans-32"/>
      <path d="M 30.609375 48.390625 
Q 23.390625 48.390625 19.1875 42.75 
Q 14.984375 37.109375 14.984375 27.296875 
Q 14.984375 17.484375 19.15625 11.84375 
Q 23.34375 6.203125 30.609375 6.203125 
Q 37.796875 6.203125 41.984375 11.859375 
Q 46.1875 17.53125 46.1875 27.296875 
Q 46.1875 37.015625 41.984375 42.703125 
Q 37.796875 48.390625 30.609375 48.390625 
z
M 30.609375 56 
Q 42.328125 56 49.015625 48.375 
Q 55.71875 40.765625 55.71875 27.296875 
Q 55.71875 13.875 49.015625 6.21875 
Q 42.328125 -1.421875 30.609375 -1.421875 
Q 18.84375 -1.421875 12.171875 6.21875 
Q 5.515625 13.875 5.515625 27.296875 
Q 5.515625 40.765625 12.171875 48.375 
Q 18.84375 56 30.609375 56 
z
" id="DejaVuSans-111"/>
      <path d="M 37.109375 75.984375 
L 37.109375 68.5 
L 28.515625 68.5 
Q 23.6875 68.5 21.796875 66.546875 
Q 19.921875 64.59375 19.921875 59.515625 
L 19.921875 54.6875 
L 34.71875 54.6875 
L 34.71875 47.703125 
L 19.921875 47.703125 
L 19.921875 0 
L 10.890625 0 
L 10.890625 47.703125 
L 2.296875 47.703125 
L 2.296875 54.6875 
L 10.890625 54.6875 
L 10.890625 58.5 
Q 10.890625 67.625 15.140625 71.796875 
Q 19.390625 75.984375 28.609375 75.984375 
z
" id="DejaVuSans-102"/>
      <path d="M 44.390625 34.1875 
Q 47.5625 33.109375 50.5625 29.59375 
Q 53.5625 26.078125 56.59375 19.921875 
L 66.609375 0 
L 56 0 
L 46.6875 18.703125 
Q 43.0625 26.03125 39.671875 28.421875 
Q 36.28125 30.8125 30.421875 30.8125 
L 19.671875 30.8125 
L 19.671875 0 
L 9.8125 0 
L 9.8125 72.90625 
L 32.078125 72.90625 
Q 44.578125 72.90625 50.734375 67.671875 
Q 56.890625 62.453125 56.890625 51.90625 
Q 56.890625 45.015625 53.6875 40.46875 
Q 50.484375 35.9375 44.390625 34.1875 
z
M 19.671875 64.796875 
L 19.671875 38.921875 
L 32.078125 38.921875 
Q 39.203125 38.921875 42.84375 42.21875 
Q 46.484375 45.515625 46.484375 51.90625 
Q 46.484375 58.296875 42.84375 61.546875 
Q 39.203125 64.796875 32.078125 64.796875 
z
" id="DejaVuSans-82"/>
      <path d="M 54.890625 33.015625 
L 54.890625 0 
L 45.90625 0 
L 45.90625 32.71875 
Q 45.90625 40.484375 42.875 44.328125 
Q 39.84375 48.1875 33.796875 48.1875 
Q 26.515625 48.1875 22.3125 43.546875 
Q 18.109375 38.921875 18.109375 30.90625 
L 18.109375 0 
L 9.078125 0 
L 9.078125 54.6875 
L 18.109375 54.6875 
L 18.109375 46.1875 
Q 21.34375 51.125 25.703125 53.5625 
Q 30.078125 56 35.796875 56 
Q 45.21875 56 50.046875 50.171875 
Q 54.890625 44.34375 54.890625 33.015625 
z
" id="DejaVuSans-110"/>
      <path d="M 45.40625 46.390625 
L 45.40625 75.984375 
L 54.390625 75.984375 
L 54.390625 0 
L 45.40625 0 
L 45.40625 8.203125 
Q 42.578125 3.328125 38.25 0.953125 
Q 33.9375 -1.421875 27.875 -1.421875 
Q 17.96875 -1.421875 11.734375 6.484375 
Q 5.515625 14.40625 5.515625 27.296875 
Q 5.515625 40.1875 11.734375 48.09375 
Q 17.96875 56 27.875 56 
Q 33.9375 56 38.25 53.625 
Q 42.578125 51.265625 45.40625 46.390625 
z
M 14.796875 27.296875 
Q 14.796875 17.390625 18.875 11.75 
Q 22.953125 6.109375 30.078125 6.109375 
Q 37.203125 6.109375 41.296875 11.75 
Q 45.40625 17.390625 45.40625 27.296875 
Q 45.40625 37.203125 41.296875 42.84375 
Q 37.203125 48.484375 30.078125 48.484375 
Q 22.953125 48.484375 18.875 42.84375 
Q 14.796875 37.203125 14.796875 27.296875 
z
" id="DejaVuSans-100"/>
      <path d="M 44.28125 53.078125 
L 44.28125 44.578125 
Q 40.484375 46.53125 36.375 47.5 
Q 32.28125 48.484375 27.875 48.484375 
Q 21.1875 48.484375 17.84375 46.4375 
Q 14.5 44.390625 14.5 40.28125 
Q 14.5 37.15625 16.890625 35.375 
Q 19.28125 33.59375 26.515625 31.984375 
L 29.59375 31.296875 
Q 39.15625 29.25 43.1875 25.515625 
Q 47.21875 21.78125 47.21875 15.09375 
Q 47.21875 7.46875 41.1875 3.015625 
Q 35.15625 -1.421875 24.609375 -1.421875 
Q 20.21875 -1.421875 15.453125 -0.5625 
Q 10.6875 0.296875 5.421875 2 
L 5.421875 11.28125 
Q 10.40625 8.6875 15.234375 7.390625 
Q 20.0625 6.109375 24.8125 6.109375 
Q 31.15625 6.109375 34.5625 8.28125 
Q 37.984375 10.453125 37.984375 14.40625 
Q 37.984375 18.0625 35.515625 20.015625 
Q 33.0625 21.96875 24.703125 23.78125 
L 21.578125 24.515625 
Q 13.234375 26.265625 9.515625 29.90625 
Q 5.8125 33.546875 5.8125 39.890625 
Q 5.8125 47.609375 11.28125 51.796875 
Q 16.75 56 26.8125 56 
Q 31.78125 56 36.171875 55.265625 
Q 40.578125 54.546875 44.28125 53.078125 
z
" id="DejaVuSans-115"/>
     </defs>
     <g transform="translate(189.429531 335.860562)scale(0.1 -0.1)">
      <use xlink:href="#DejaVuSans-78"/>
      <use x="74.804688" xlink:href="#DejaVuSans-117"/>
      <use x="138.183594" xlink:href="#DejaVuSans-109"/>
      <use x="235.595703" xlink:href="#DejaVuSans-98"/>
      <use x="299.072266" xlink:href="#DejaVuSans-101"/>
      <use x="360.595703" xlink:href="#DejaVuSans-114"/>
      <use x="401.708984" xlink:href="#DejaVuSans-32"/>
      <use x="433.496094" xlink:href="#DejaVuSans-111"/>
      <use x="494.677734" xlink:href="#DejaVuSans-102"/>
      <use x="529.882812" xlink:href="#DejaVuSans-32"/>
      <use x="561.669922" xlink:href="#DejaVuSans-82"/>
      <use x="631.089844" xlink:href="#DejaVuSans-111"/>
      <use x="692.271484" xlink:href="#DejaVuSans-117"/>
      <use x="755.650391" xlink:href="#DejaVuSans-110"/>
      <use x="819.029297" xlink:href="#DejaVuSans-100"/>
      <use x="882.505859" xlink:href="#DejaVuSans-115"/>
     </g>
    </g>
   </g>
   <g id="matplotlib.axis_2">
    <g id="ytick_1">
     <g id="line2d_7">
      <defs>
       <path d="M 0 0 
L -3.5 0 
" id="m863e4a90d8" style="stroke:#000000;stroke-width:0.8;"/>
      </defs>
      <g>
       <use style="stroke:#000000;stroke-width:0.8;" x="57.6" xlink:href="#m863e4a90d8" y="279.589349"/>
      </g>
     </g>
     <g id="text_8">
      <!-- −260 -->
      <defs>
       <path d="M 10.59375 35.5 
L 73.1875 35.5 
L 73.1875 27.203125 
L 10.59375 27.203125 
z
" id="DejaVuSans-8722"/>
      </defs>
      <g transform="translate(23.132812 283.388567)scale(0.1 -0.1)">
       <use xlink:href="#DejaVuSans-8722"/>
       <use x="83.789062" xlink:href="#DejaVuSans-50"/>
       <use x="147.412109" xlink:href="#DejaVuSans-54"/>
       <use x="211.035156" xlink:href="#DejaVuSans-48"/>
      </g>
     </g>
    </g>
    <g id="ytick_2">
     <g id="line2d_8">
      <g>
       <use style="stroke:#000000;stroke-width:0.8;" x="57.6" xlink:href="#m863e4a90d8" y="241.46753"/>
      </g>
     </g>
     <g id="text_9">
      <!-- −240 -->
      <g transform="translate(23.132812 245.266749)scale(0.1 -0.1)">
       <use xlink:href="#DejaVuSans-8722"/>
       <use x="83.789062" xlink:href="#DejaVuSans-50"/>
       <use x="147.412109" xlink:href="#DejaVuSans-52"/>
       <use x="211.035156" xlink:href="#DejaVuSans-48"/>
      </g>
     </g>
    </g>
    <g id="ytick_3">
     <g id="line2d_9">
      <g>
       <use style="stroke:#000000;stroke-width:0.8;" x="57.6" xlink:href="#m863e4a90d8" y="203.345712"/>
      </g>
     </g>
     <g id="text_10">
      <!-- −220 -->
      <g transform="translate(23.132812 207.144931)scale(0.1 -0.1)">
       <use xlink:href="#DejaVuSans-8722"/>
       <use x="83.789062" xlink:href="#DejaVuSans-50"/>
       <use x="147.412109" xlink:href="#DejaVuSans-50"/>
       <use x="211.035156" xlink:href="#DejaVuSans-48"/>
      </g>
     </g>
    </g>
    <g id="ytick_4">
     <g id="line2d_10">
      <g>
       <use style="stroke:#000000;stroke-width:0.8;" x="57.6" xlink:href="#m863e4a90d8" y="165.223894"/>
      </g>
     </g>
     <g id="text_11">
      <!-- −200 -->
      <g transform="translate(23.132812 169.023112)scale(0.1 -0.1)">
       <use xlink:href="#DejaVuSans-8722"/>
       <use x="83.789062" xlink:href="#DejaVuSans-50"/>
       <use x="147.412109" xlink:href="#DejaVuSans-48"/>
       <use x="211.035156" xlink:href="#DejaVuSans-48"/>
      </g>
     </g>
    </g>
    <g id="ytick_5">
     <g id="line2d_11">
      <g>
       <use style="stroke:#000000;stroke-width:0.8;" x="57.6" xlink:href="#m863e4a90d8" y="127.102075"/>
      </g>
     </g>
     <g id="text_12">
      <!-- −180 -->
      <g transform="translate(23.132812 130.901294)scale(0.1 -0.1)">
       <use xlink:href="#DejaVuSans-8722"/>
       <use x="83.789062" xlink:href="#DejaVuSans-49"/>
       <use x="147.412109" xlink:href="#DejaVuSans-56"/>
       <use x="211.035156" xlink:href="#DejaVuSans-48"/>
      </g>
     </g>
    </g>
    <g id="ytick_6">
     <g id="line2d_12">
      <g>
       <use style="stroke:#000000;stroke-width:0.8;" x="57.6" xlink:href="#m863e4a90d8" y="88.980257"/>
      </g>
     </g>
     <g id="text_13">
      <!-- −160 -->
      <g transform="translate(23.132812 92.779476)scale(0.1 -0.1)">
       <use xlink:href="#DejaVuSans-8722"/>
       <use x="83.789062" xlink:href="#DejaVuSans-49"/>
       <use x="147.412109" xlink:href="#DejaVuSans-54"/>
       <use x="211.035156" xlink:href="#DejaVuSans-48"/>
      </g>
     </g>
    </g>
    <g id="ytick_7">
     <g id="line2d_13">
      <g>
       <use style="stroke:#000000;stroke-width:0.8;" x="57.6" xlink:href="#m863e4a90d8" y="50.858439"/>
      </g>
     </g>
     <g id="text_14">
      <!-- −140 -->
      <g transform="translate(23.132812 54.657658)scale(0.1 -0.1)">
       <use xlink:href="#DejaVuSans-8722"/>
       <use x="83.789062" xlink:href="#DejaVuSans-49"/>
       <use x="147.412109" xlink:href="#DejaVuSans-52"/>
       <use x="211.035156" xlink:href="#DejaVuSans-48"/>
      </g>
     </g>
    </g>
    <g id="text_15">
     <!-- Reward -->
     <defs>
      <path d="M 4.203125 54.6875 
L 13.1875 54.6875 
L 24.421875 12.015625 
L 35.59375 54.6875 
L 46.1875 54.6875 
L 57.421875 12.015625 
L 68.609375 54.6875 
L 77.59375 54.6875 
L 63.28125 0 
L 52.6875 0 
L 40.921875 44.828125 
L 29.109375 0 
L 18.5 0 
z
" id="DejaVuSans-119"/>
      <path d="M 34.28125 27.484375 
Q 23.390625 27.484375 19.1875 25 
Q 14.984375 22.515625 14.984375 16.5 
Q 14.984375 11.71875 18.140625 8.90625 
Q 21.296875 6.109375 26.703125 6.109375 
Q 34.1875 6.109375 38.703125 11.40625 
Q 43.21875 16.703125 43.21875 25.484375 
L 43.21875 27.484375 
z
M 52.203125 31.203125 
L 52.203125 0 
L 43.21875 0 
L 43.21875 8.296875 
Q 40.140625 3.328125 35.546875 0.953125 
Q 30.953125 -1.421875 24.3125 -1.421875 
Q 15.921875 -1.421875 10.953125 3.296875 
Q 6 8.015625 6 15.921875 
Q 6 25.140625 12.171875 29.828125 
Q 18.359375 34.515625 30.609375 34.515625 
L 43.21875 34.515625 
L 43.21875 35.40625 
Q 43.21875 41.609375 39.140625 45 
Q 35.0625 48.390625 27.6875 48.390625 
Q 23 48.390625 18.546875 47.265625 
Q 14.109375 46.140625 10.015625 43.890625 
L 10.015625 52.203125 
Q 14.9375 54.109375 19.578125 55.046875 
Q 24.21875 56 28.609375 56 
Q 40.484375 56 46.34375 49.84375 
Q 52.203125 43.703125 52.203125 31.203125 
z
" id="DejaVuSans-97"/>
     </defs>
     <g transform="translate(17.053125 193.457687)rotate(-90)scale(0.1 -0.1)">
      <use xlink:href="#DejaVuSans-82"/>
      <use x="69.419922" xlink:href="#DejaVuSans-101"/>
      <use x="130.943359" xlink:href="#DejaVuSans-119"/>
      <use x="212.730469" xlink:href="#DejaVuSans-97"/>
      <use x="274.009766" xlink:href="#DejaVuSans-114"/>
      <use x="315.107422" xlink:href="#DejaVuSans-100"/>
     </g>
    </g>
   </g>
   <g id="line2d_14">
    <path clip-path="url(#pcdd23e9bfb)" d="M 73.832727 183.577961 
L 77.112066 128.093507 
L 80.391405 123.191942 
L 83.670744 101.361906 
L 86.950083 154.856877 
L 90.229421 168.143919 
L 93.50876 126.941911 
L 96.788099 166.404611 
L 100.067438 63.843683 
L 103.346777 172.224807 
L 106.626116 70.74135 
L 109.905455 109.738117 
L 113.184793 226.000397 
L 116.464132 226.353818 
L 119.743471 185.23123 
L 123.02281 283.870111 
L 126.302149 295.488 
L 129.581488 284.206324 
L 132.860826 249.367218 
L 136.140165 264.431955 
L 139.419504 233.514895 
L 142.698843 151.022193 
L 145.978182 146.840706 
L 149.257521 162.597724 
L 152.53686 131.597273 
L 155.816198 124.379277 
L 159.095537 109.527652 
L 162.374876 135.153986 
L 165.654215 127.28739 
L 168.933554 178.17737 
L 172.212893 159.415611 
L 175.492231 216.606281 
L 178.77157 209.438585 
L 182.050909 138.518766 
L 185.330248 127.335042 
L 188.609587 166.619046 
L 191.888926 173.977352 
L 195.168264 138.816593 
L 198.447603 163.869775 
L 201.726942 212.939703 
L 205.006281 83.325521 
L 208.28562 108.364143 
L 211.564959 88.231057 
L 214.844298 150.737603 
L 218.123636 173.647757 
L 221.402975 223.120082 
L 224.682314 250.36924 
L 227.961653 252.158847 
L 231.240992 238.645457 
L 234.520331 214.935804 
L 237.799669 224.258441 
L 241.079008 195.731938 
L 244.358347 184.484678 
L 247.637686 255.503772 
L 250.917025 183.88373 
L 254.196364 161.042407 
L 257.475702 213.847743 
L 260.755041 235.369363 
L 264.03438 258.585286 
L 267.313719 195.802092 
L 270.593058 217.466669 
L 273.872397 173.262567 
L 277.151736 206.588714 
L 280.431074 265.674885 
L 283.710413 184.775886 
L 286.989752 159.210442 
L 290.269091 161.8975 
L 293.54843 203.707075 
L 296.827769 232.507579 
L 300.107107 164.020674 
L 303.386446 146.217255 
L 306.665785 193.591556 
L 309.945124 141.952377 
L 313.224463 126.017986 
L 316.503802 113.938135 
L 319.78314 139.583 
L 323.062479 149.718374 
L 326.341818 136.056732 
L 329.621157 181.965726 
L 332.900496 210.267205 
L 336.179835 159.65652 
L 339.459174 186.644914 
L 342.738512 165.219923 
L 346.017851 185.167694 
L 349.29719 225.545053 
L 352.576529 131.733612 
L 355.855868 132.177042 
L 359.135207 167.64357 
L 362.414545 118.549816 
L 365.693884 121.84047 
L 368.973223 112.229272 
L 372.252562 128.567383 
L 375.531901 121.723987 
L 378.81124 84.950993 
L 382.090579 109.826803 
L 385.369917 135.774789 
L 388.649256 85.131012 
L 391.928595 119.649789 
L 395.207934 53.568 
L 398.487273 77.905075 
" style="fill:none;stroke:#96cccb;stroke-linecap:square;stroke-width:1.5;"/>
    <defs>
     <path d="M 0 1.5 
C 0.397805 1.5 0.77937 1.341951 1.06066 1.06066 
C 1.341951 0.77937 1.5 0.397805 1.5 0 
C 1.5 -0.397805 1.341951 -0.77937 1.06066 -1.06066 
C 0.77937 -1.341951 0.397805 -1.5 0 -1.5 
C -0.397805 -1.5 -0.77937 -1.341951 -1.06066 -1.06066 
C -1.341951 -0.77937 -1.5 -0.397805 -1.5 0 
C -1.5 0.397805 -1.341951 0.77937 -1.06066 1.06066 
C -0.77937 1.341951 -0.397805 1.5 0 1.5 
z
" id="m55e4ef0381" style="stroke:#96cccb;"/>
    </defs>
    <g clip-path="url(#pcdd23e9bfb)">
     <use style="fill:#96cccb;stroke:#96cccb;" x="73.832727" xlink:href="#m55e4ef0381" y="183.577961"/>
     <use style="fill:#96cccb;stroke:#96cccb;" x="77.112066" xlink:href="#m55e4ef0381" y="128.093507"/>
     <use style="fill:#96cccb;stroke:#96cccb;" x="80.391405" xlink:href="#m55e4ef0381" y="123.191942"/>
     <use style="fill:#96cccb;stroke:#96cccb;" x="83.670744" xlink:href="#m55e4ef0381" y="101.361906"/>
     <use style="fill:#96cccb;stroke:#96cccb;" x="86.950083" xlink:href="#m55e4ef0381" y="154.856877"/>
     <use style="fill:#96cccb;stroke:#96cccb;" x="90.229421" xlink:href="#m55e4ef0381" y="168.143919"/>
     <use style="fill:#96cccb;stroke:#96cccb;" x="93.50876" xlink:href="#m55e4ef0381" y="126.941911"/>
     <use style="fill:#96cccb;stroke:#96cccb;" x="96.788099" xlink:href="#m55e4ef0381" y="166.404611"/>
     <use style="fill:#96cccb;stroke:#96cccb;" x="100.067438" xlink:href="#m55e4ef0381" y="63.843683"/>
     <use style="fill:#96cccb;stroke:#96cccb;" x="103.346777" xlink:href="#m55e4ef0381" y="172.224807"/>
     <use style="fill:#96cccb;stroke:#96cccb;" x="106.626116" xlink:href="#m55e4ef0381" y="70.74135"/>
     <use style="fill:#96cccb;stroke:#96cccb;" x="109.905455" xlink:href="#m55e4ef0381" y="109.738117"/>
     <use style="fill:#96cccb;stroke:#96cccb;" x="113.184793" xlink:href="#m55e4ef0381" y="226.000397"/>
     <use style="fill:#96cccb;stroke:#96cccb;" x="116.464132" xlink:href="#m55e4ef0381" y="226.353818"/>
     <use style="fill:#96cccb;stroke:#96cccb;" x="119.743471" xlink:href="#m55e4ef0381" y="185.23123"/>
     <use style="fill:#96cccb;stroke:#96cccb;" x="123.02281" xlink:href="#m55e4ef0381" y="283.870111"/>
     <use style="fill:#96cccb;stroke:#96cccb;" x="126.302149" xlink:href="#m55e4ef0381" y="295.488"/>
     <use style="fill:#96cccb;stroke:#96cccb;" x="129.581488" xlink:href="#m55e4ef0381" y="284.206324"/>
     <use style="fill:#96cccb;stroke:#96cccb;" x="132.860826" xlink:href="#m55e4ef0381" y="249.367218"/>
     <use style="fill:#96cccb;stroke:#96cccb;" x="136.140165" xlink:href="#m55e4ef0381" y="264.431955"/>
     <use style="fill:#96cccb;stroke:#96cccb;" x="139.419504" xlink:href="#m55e4ef0381" y="233.514895"/>
     <use style="fill:#96cccb;stroke:#96cccb;" x="142.698843" xlink:href="#m55e4ef0381" y="151.022193"/>
     <use style="fill:#96cccb;stroke:#96cccb;" x="145.978182" xlink:href="#m55e4ef0381" y="146.840706"/>
     <use style="fill:#96cccb;stroke:#96cccb;" x="149.257521" xlink:href="#m55e4ef0381" y="162.597724"/>
     <use style="fill:#96cccb;stroke:#96cccb;" x="152.53686" xlink:href="#m55e4ef0381" y="131.597273"/>
     <use style="fill:#96cccb;stroke:#96cccb;" x="155.816198" xlink:href="#m55e4ef0381" y="124.379277"/>
     <use style="fill:#96cccb;stroke:#96cccb;" x="159.095537" xlink:href="#m55e4ef0381" y="109.527652"/>
     <use style="fill:#96cccb;stroke:#96cccb;" x="162.374876" xlink:href="#m55e4ef0381" y="135.153986"/>
     <use style="fill:#96cccb;stroke:#96cccb;" x="165.654215" xlink:href="#m55e4ef0381" y="127.28739"/>
     <use style="fill:#96cccb;stroke:#96cccb;" x="168.933554" xlink:href="#m55e4ef0381" y="178.17737"/>
     <use style="fill:#96cccb;stroke:#96cccb;" x="172.212893" xlink:href="#m55e4ef0381" y="159.415611"/>
     <use style="fill:#96cccb;stroke:#96cccb;" x="175.492231" xlink:href="#m55e4ef0381" y="216.606281"/>
     <use style="fill:#96cccb;stroke:#96cccb;" x="178.77157" xlink:href="#m55e4ef0381" y="209.438585"/>
     <use style="fill:#96cccb;stroke:#96cccb;" x="182.050909" xlink:href="#m55e4ef0381" y="138.518766"/>
     <use style="fill:#96cccb;stroke:#96cccb;" x="185.330248" xlink:href="#m55e4ef0381" y="127.335042"/>
     <use style="fill:#96cccb;stroke:#96cccb;" x="188.609587" xlink:href="#m55e4ef0381" y="166.619046"/>
     <use style="fill:#96cccb;stroke:#96cccb;" x="191.888926" xlink:href="#m55e4ef0381" y="173.977352"/>
     <use style="fill:#96cccb;stroke:#96cccb;" x="195.168264" xlink:href="#m55e4ef0381" y="138.816593"/>
     <use style="fill:#96cccb;stroke:#96cccb;" x="198.447603" xlink:href="#m55e4ef0381" y="163.869775"/>
     <use style="fill:#96cccb;stroke:#96cccb;" x="201.726942" xlink:href="#m55e4ef0381" y="212.939703"/>
     <use style="fill:#96cccb;stroke:#96cccb;" x="205.006281" xlink:href="#m55e4ef0381" y="83.325521"/>
     <use style="fill:#96cccb;stroke:#96cccb;" x="208.28562" xlink:href="#m55e4ef0381" y="108.364143"/>
     <use style="fill:#96cccb;stroke:#96cccb;" x="211.564959" xlink:href="#m55e4ef0381" y="88.231057"/>
     <use style="fill:#96cccb;stroke:#96cccb;" x="214.844298" xlink:href="#m55e4ef0381" y="150.737603"/>
     <use style="fill:#96cccb;stroke:#96cccb;" x="218.123636" xlink:href="#m55e4ef0381" y="173.647757"/>
     <use style="fill:#96cccb;stroke:#96cccb;" x="221.402975" xlink:href="#m55e4ef0381" y="223.120082"/>
     <use style="fill:#96cccb;stroke:#96cccb;" x="224.682314" xlink:href="#m55e4ef0381" y="250.36924"/>
     <use style="fill:#96cccb;stroke:#96cccb;" x="227.961653" xlink:href="#m55e4ef0381" y="252.158847"/>
     <use style="fill:#96cccb;stroke:#96cccb;" x="231.240992" xlink:href="#m55e4ef0381" y="238.645457"/>
     <use style="fill:#96cccb;stroke:#96cccb;" x="234.520331" xlink:href="#m55e4ef0381" y="214.935804"/>
     <use style="fill:#96cccb;stroke:#96cccb;" x="237.799669" xlink:href="#m55e4ef0381" y="224.258441"/>
     <use style="fill:#96cccb;stroke:#96cccb;" x="241.079008" xlink:href="#m55e4ef0381" y="195.731938"/>
     <use style="fill:#96cccb;stroke:#96cccb;" x="244.358347" xlink:href="#m55e4ef0381" y="184.484678"/>
     <use style="fill:#96cccb;stroke:#96cccb;" x="247.637686" xlink:href="#m55e4ef0381" y="255.503772"/>
     <use style="fill:#96cccb;stroke:#96cccb;" x="250.917025" xlink:href="#m55e4ef0381" y="183.88373"/>
     <use style="fill:#96cccb;stroke:#96cccb;" x="254.196364" xlink:href="#m55e4ef0381" y="161.042407"/>
     <use style="fill:#96cccb;stroke:#96cccb;" x="257.475702" xlink:href="#m55e4ef0381" y="213.847743"/>
     <use style="fill:#96cccb;stroke:#96cccb;" x="260.755041" xlink:href="#m55e4ef0381" y="235.369363"/>
     <use style="fill:#96cccb;stroke:#96cccb;" x="264.03438" xlink:href="#m55e4ef0381" y="258.585286"/>
     <use style="fill:#96cccb;stroke:#96cccb;" x="267.313719" xlink:href="#m55e4ef0381" y="195.802092"/>
     <use style="fill:#96cccb;stroke:#96cccb;" x="270.593058" xlink:href="#m55e4ef0381" y="217.466669"/>
     <use style="fill:#96cccb;stroke:#96cccb;" x="273.872397" xlink:href="#m55e4ef0381" y="173.262567"/>
     <use style="fill:#96cccb;stroke:#96cccb;" x="277.151736" xlink:href="#m55e4ef0381" y="206.588714"/>
     <use style="fill:#96cccb;stroke:#96cccb;" x="280.431074" xlink:href="#m55e4ef0381" y="265.674885"/>
     <use style="fill:#96cccb;stroke:#96cccb;" x="283.710413" xlink:href="#m55e4ef0381" y="184.775886"/>
     <use style="fill:#96cccb;stroke:#96cccb;" x="286.989752" xlink:href="#m55e4ef0381" y="159.210442"/>
     <use style="fill:#96cccb;stroke:#96cccb;" x="290.269091" xlink:href="#m55e4ef0381" y="161.8975"/>
     <use style="fill:#96cccb;stroke:#96cccb;" x="293.54843" xlink:href="#m55e4ef0381" y="203.707075"/>
     <use style="fill:#96cccb;stroke:#96cccb;" x="296.827769" xlink:href="#m55e4ef0381" y="232.507579"/>
     <use style="fill:#96cccb;stroke:#96cccb;" x="300.107107" xlink:href="#m55e4ef0381" y="164.020674"/>
     <use style="fill:#96cccb;stroke:#96cccb;" x="303.386446" xlink:href="#m55e4ef0381" y="146.217255"/>
     <use style="fill:#96cccb;stroke:#96cccb;" x="306.665785" xlink:href="#m55e4ef0381" y="193.591556"/>
     <use style="fill:#96cccb;stroke:#96cccb;" x="309.945124" xlink:href="#m55e4ef0381" y="141.952377"/>
     <use style="fill:#96cccb;stroke:#96cccb;" x="313.224463" xlink:href="#m55e4ef0381" y="126.017986"/>
     <use style="fill:#96cccb;stroke:#96cccb;" x="316.503802" xlink:href="#m55e4ef0381" y="113.938135"/>
     <use style="fill:#96cccb;stroke:#96cccb;" x="319.78314" xlink:href="#m55e4ef0381" y="139.583"/>
     <use style="fill:#96cccb;stroke:#96cccb;" x="323.062479" xlink:href="#m55e4ef0381" y="149.718374"/>
     <use style="fill:#96cccb;stroke:#96cccb;" x="326.341818" xlink:href="#m55e4ef0381" y="136.056732"/>
     <use style="fill:#96cccb;stroke:#96cccb;" x="329.621157" xlink:href="#m55e4ef0381" y="181.965726"/>
     <use style="fill:#96cccb;stroke:#96cccb;" x="332.900496" xlink:href="#m55e4ef0381" y="210.267205"/>
     <use style="fill:#96cccb;stroke:#96cccb;" x="336.179835" xlink:href="#m55e4ef0381" y="159.65652"/>
     <use style="fill:#96cccb;stroke:#96cccb;" x="339.459174" xlink:href="#m55e4ef0381" y="186.644914"/>
     <use style="fill:#96cccb;stroke:#96cccb;" x="342.738512" xlink:href="#m55e4ef0381" y="165.219923"/>
     <use style="fill:#96cccb;stroke:#96cccb;" x="346.017851" xlink:href="#m55e4ef0381" y="185.167694"/>
     <use style="fill:#96cccb;stroke:#96cccb;" x="349.29719" xlink:href="#m55e4ef0381" y="225.545053"/>
     <use style="fill:#96cccb;stroke:#96cccb;" x="352.576529" xlink:href="#m55e4ef0381" y="131.733612"/>
     <use style="fill:#96cccb;stroke:#96cccb;" x="355.855868" xlink:href="#m55e4ef0381" y="132.177042"/>
     <use style="fill:#96cccb;stroke:#96cccb;" x="359.135207" xlink:href="#m55e4ef0381" y="167.64357"/>
     <use style="fill:#96cccb;stroke:#96cccb;" x="362.414545" xlink:href="#m55e4ef0381" y="118.549816"/>
     <use style="fill:#96cccb;stroke:#96cccb;" x="365.693884" xlink:href="#m55e4ef0381" y="121.84047"/>
     <use style="fill:#96cccb;stroke:#96cccb;" x="368.973223" xlink:href="#m55e4ef0381" y="112.229272"/>
     <use style="fill:#96cccb;stroke:#96cccb;" x="372.252562" xlink:href="#m55e4ef0381" y="128.567383"/>
     <use style="fill:#96cccb;stroke:#96cccb;" x="375.531901" xlink:href="#m55e4ef0381" y="121.723987"/>
     <use style="fill:#96cccb;stroke:#96cccb;" x="378.81124" xlink:href="#m55e4ef0381" y="84.950993"/>
     <use style="fill:#96cccb;stroke:#96cccb;" x="382.090579" xlink:href="#m55e4ef0381" y="109.826803"/>
     <use style="fill:#96cccb;stroke:#96cccb;" x="385.369917" xlink:href="#m55e4ef0381" y="135.774789"/>
     <use style="fill:#96cccb;stroke:#96cccb;" x="388.649256" xlink:href="#m55e4ef0381" y="85.131012"/>
     <use style="fill:#96cccb;stroke:#96cccb;" x="391.928595" xlink:href="#m55e4ef0381" y="119.649789"/>
     <use style="fill:#96cccb;stroke:#96cccb;" x="395.207934" xlink:href="#m55e4ef0381" y="53.568"/>
     <use style="fill:#96cccb;stroke:#96cccb;" x="398.487273" xlink:href="#m55e4ef0381" y="77.905075"/>
    </g>
   </g>
   <g id="patch_3">
    <path d="M 57.6 307.584 
L 57.6 41.472 
" style="fill:none;stroke:#000000;stroke-linecap:square;stroke-linejoin:miter;stroke-width:0.8;"/>
   </g>
   <g id="patch_4">
    <path d="M 414.72 307.584 
L 414.72 41.472 
" style="fill:none;stroke:#000000;stroke-linecap:square;stroke-linejoin:miter;stroke-width:0.8;"/>
   </g>
   <g id="patch_5">
    <path d="M 57.6 307.584 
L 414.72 307.584 
" style="fill:none;stroke:#000000;stroke-linecap:square;stroke-linejoin:miter;stroke-width:0.8;"/>
   </g>
   <g id="patch_6">
    <path d="M 57.6 41.472 
L 414.72 41.472 
" style="fill:none;stroke:#000000;stroke-linecap:square;stroke-linejoin:miter;stroke-width:0.8;"/>
   </g>
  </g>
 </g>
 <defs>
  <clipPath id="pcdd23e9bfb">
   <rect height="266.112" width="357.12" x="57.6" y="41.472"/>
  </clipPath>
 </defs>
</svg>
